<svg xmlns="http://www.w3.org/2000/svg" viewBox="0 0 24 24" fill="none" stroke="#00d084" stroke-width="2" stroke-linecap="round" stroke-linejoin="round">
    <circle cx="12" cy="12" r="10" opacity="0.25" />
    <path d="M12 2C6.5 2 2 6.5 2 12c0 3 1.3 5.7 3.5 7.5" opacity="0.6" />
    <path d="M12 6a6 6 0 0 0-6 6c0 3.3 2.7 6 6 6 2.3 0 4.3-1.3 5.3-3.3" />
    <circle cx="12" cy="12" r="2.5" fill="#00d084" stroke="none" />
    <path d="M18.5 11c0-2-1.5-3.5-3.5-3.5S11.5 9 11.5 11s1.5 3.5 3.5 3.5s3.5-1.5 3.5-3.5Z" fill="#00d084" stroke="none" />
</svg>
